<svg width="11" height="15" viewBox="0 0 11 15" fill="none" xmlns="http://www.w3.org/2000/svg">
<path d="M4.93476 14.6974C0.772578 8.5263 0 7.89296 0 5.62501C0 2.5184 2.46242 7.62939e-06 5.5 7.62939e-06C8.53758 7.62939e-06 11 2.5184 11 5.62501C11 7.89296 10.2274 8.5263 6.06524 14.6974C5.7921 15.1009 5.20787 15.1009 4.93476 14.6974ZM5.5 7.96876C6.76566 7.96876 7.79167 6.91943 7.79167 5.62501C7.79167 4.33058 6.76566 3.28126 5.5 3.28126C4.23434 3.28126 3.20833 4.33058 3.20833 5.62501C3.20833 6.91943 4.23434 7.96876 5.5 7.96876Z" fill="black"/>
</svg>
